<svg width="47" height="47" viewBox="0 0 47 47" fill="none" xmlns="http://www.w3.org/2000/svg">
<g clip-path="url(#clip0_31919_36)">
<path d="M23.333 2.2C28.5714 2.20419 33.6216 4.15427 37.5033 7.67184C41.3851 11.1894 43.8217 16.0236 44.3403 21.2363C44.8589 26.449 43.4225 31.6685 40.3099 35.882C37.1973 40.0954 32.6304 43.0023 27.4955 44.0385C22.3605 45.0747 17.0237 44.1664 12.5207 41.4898C8.01768 38.8132 4.66956 34.5592 3.12606 29.5533C1.58256 24.5474 1.95376 19.1466 4.16762 14.399C6.38147 9.6513 10.2801 5.89536 15.107 3.86C17.7105 2.76257 20.5076 2.19812 23.333 2.2M23.333 2.14309e-08C18.7182 0.000197801 14.2071 1.36882 10.3701 3.93281C6.53318 6.49679 3.54269 10.141 1.77682 14.4045C0.0109527 18.6681 -0.450976 23.3596 0.449446 27.8857C1.34987 32.4117 3.5722 36.5692 6.83542 39.8323C10.0986 43.0954 14.2562 45.3175 18.7823 46.2177C23.3084 47.118 27.9999 46.6558 32.2634 44.8898C36.5269 43.1237 40.1709 40.1331 42.7347 36.296C45.2986 32.4589 46.667 27.9478 46.667 23.333C46.667 20.2688 46.0634 17.2346 44.8908 14.4036C43.7181 11.5727 41.9993 9.00041 39.8326 6.83372C37.6658 4.66704 35.0935 2.94837 32.2624 1.77583C29.4314 0.603298 26.3972 -0.000131304 23.333 2.14309e-08V2.14309e-08Z" fill="#2A7AE4"/>
<path d="M16.8368 35.5742L7.71582 26.4532L9.27082 24.8992L16.8378 32.4662L37.3958 11.9082L38.9508 13.4632L16.8368 35.5742Z" fill="#2A7AE4"/>
</g>
<defs>
<clipPath id="clip0_31919_36">
<rect width="46.667" height="46.667" fill="white"/>
</clipPath>
</defs>
</svg>
